<?xml version="1.0" standalone="no"?>
<!DOCTYPE svg PUBLIC "-//W3C//DTD SVG 20010904//EN"
 "http://www.w3.org/TR/2001/REC-SVG-20010904/DTD/svg10.dtd">
<svg version="1.0" xmlns="http://www.w3.org/2000/svg"
 width="1024.000000pt" height="1024.000000pt" viewBox="0 0 1024.000000 1024.000000"
 preserveAspectRatio="xMidYMid meet">
<metadata>
Created by potrace 1.14, written by Peter Selinger 2001-2017
</metadata>
<g transform="translate(0.000000,1024.000000) scale(0.100000,-0.100000)"
fill="#000000" stroke="none">
<path d="M0 5120 l0 -5120 5120 0 5120 0 0 5120 0 5120 -5120 0 -5120 0 0
-5120z m4920 3625 c0 -190 -4 -295 -10 -295 -6 0 -10 -40 -10 -100 l0 -100
-120 0 c-73 0 -120 -4 -120 -10 0 -6 -94 -10 -262 -10 l-263 0 3 -70 4 -70
-161 0 -161 0 0 -90 0 -90 -230 0 -230 0 0 -160 0 -160 -302 -2 -303 -3 -3
-377 -2 -377 -123 -3 -122 -3 -3 -297 -2 -298 -120 0 -120 0 0 -480 0 -480
-100 0 -100 0 0 -430 0 -430 105 0 105 0 0 -65 0 -65 130 0 131 0 -3 -300 -3
-300 213 0 212 0 0 -139 c0 -117 -2 -140 -16 -145 -9 -3 -63 -6 -120 -6 l-104
0 0 -140 0 -141 -117 3 -118 3 -3 143 -3 142 -114 0 -115 0 0 140 0 140 -126
0 -126 0 4 420 4 420 -118 0 -118 0 0 855 0 855 115 0 115 0 0 295 0 295 120
0 120 0 0 265 0 265 120 0 120 0 0 130 0 130 138 0 137 0 0 152 0 153 148 3
147 3 0 134 0 135 150 0 150 0 0 120 0 120 99 0 99 0 6 45 7 45 250 0 249 0 0
135 0 135 270 0 270 0 0 125 0 125 165 0 165 0 0 -295z m1110 170 l0 -125 330
0 330 0 0 -135 0 -135 230 0 230 0 0 -42 0 -43 113 -1 112 -1 3 -121 3 -122
124 0 125 0 0 -135 0 -135 163 -2 162 -3 1 -35 c0 -19 1 -88 2 -152 l2 -118
130 0 130 0 0 -130 0 -130 100 0 100 0 0 -265 0 -265 120 0 120 0 0 -295 0
-295 110 0 110 0 0 -855 0 -854 -112 -3 -113 -3 -3 -418 -2 -417 -125 0 -125
0 0 -139 c0 -117 -2 -140 -16 -145 -9 -3 -56 -6 -105 -6 l-89 0 0 -140 0 -141
-132 3 -133 3 -3 143 -3 142 -129 0 -130 0 0 146 0 147 233 -4 232 -4 9 298 9
297 133 0 134 0 0 160 0 160 90 0 90 0 0 175 0 175 -102 0 -101 0 7 640 6 640
-135 0 -135 0 0 300 0 300 -107 0 -106 0 6 381 7 382 -285 -7 -285 -7 0 165 0
166 -97 0 c-54 0 -162 3 -240 7 l-143 6 0 83 0 83 -132 3 -133 3 -3 163 -2
162 -195 0 -195 0 0 60 0 60 -490 0 -490 0 0 250 0 250 395 0 395 0 0 -125z
m390 -845 l0 -160 110 0 110 0 0 -145 0 -145 -220 0 -220 0 0 58 c0 33 -3 100
-6 150 l-7 92 -181 0 -181 0 3 -155 3 -155 104 0 105 0 0 -210 0 -210 75 0 75
0 0 -190 0 -190 120 0 119 0 3 -152 3 -153 223 -3 222 -2 0 -145 0 -145 485 0
486 0 -2 -120 -1 -120 -124 0 -124 0 0 -80 0 -80 -2245 0 c-1235 0 -2244 3
-2244 8 1 4 1 40 0 80 l-1 72 -115 0 -115 0 0 120 0 120 482 0 481 0 -6 145
-6 145 179 0 180 0 0 155 0 155 120 0 120 0 0 265 0 265 155 0 155 0 0 285 0
285 163 2 162 3 3 158 3 157 674 0 675 0 0 -160z m227 -837 c-2 -37 -3 -9 -3
62 0 72 1 102 3 68 2 -34 2 -93 0 -130z m5 -321 c2 -45 0 -82 -4 -82 -5 0 -7
55 -6 123 2 124 5 109 10 -41z m-2675 -79 c-20 -2 -52 -2 -70 0 -17 2 0 4 38
4 39 0 53 -2 32 -4z m-157 -303 c0 -6 -33 -9 -82 -8 l-83 2 80 6 c44 3 81 7
83 8 1 1 2 -2 2 -8z m3558 -7 c-81 -2 -216 -2 -300 0 -84 1 -18 3 147 3 165 0
234 -2 153 -3z m540 -1161 l2 -242 -30 0 -30 0 0 -80 0 -80 -110 0 -110 0 0
-161 0 -161 -130 7 -130 8 0 -167 0 -166 -230 0 -229 0 -3 148 -3 147 -97 3
-98 3 0 199 0 200 95 0 95 0 0 245 0 245 365 0 365 0 0 45 0 44 128 3 c70 2
132 3 137 2 6 0 11 -91 13 -242z m-1445 -235 c4 -210 7 -478 7 -594 l0 -213
-152 0 -151 0 7 -160 7 -160 -170 0 -170 0 -3 -152 -3 -153 -139 -3 -138 -3 3
-147 4 -147 -82 -3 -83 -3 0 -144 0 -145 -85 0 -85 0 0 145 0 145 -85 0 -85 0
0 150 0 150 -162 2 -163 3 -3 153 -3 152 -154 0 -155 0 0 160 0 160 -130 0
-130 0 0 595 0 595 119 0 118 0 6 -82 c4 -46 7 -111 7 -145 l0 -63 905 0 905
0 0 148 0 147 118 -3 119 -3 6 -382z m-2739 352 c3 -17 6 -128 6 -245 l0 -214
89 0 88 0 7 -61 c3 -34 6 -124 6 -200 l0 -139 -110 0 -110 0 0 -156 0 -155
-92 2 -93 2 -3 -167 -2 -166 130 0 130 0 0 -220 0 -220 -115 0 -115 0 0 70 0
70 -105 0 -105 0 0 145 0 145 -115 0 c-84 0 -117 3 -120 13 -2 6 -5 39 -7 72
l-3 60 -103 3 -103 3 3 84 3 85 -95 0 -95 0 -3 155 -3 155 85 0 86 0 0 145 0
144 153 3 152 3 0 190 0 190 -50 6 c-27 3 -44 7 -37 7 9 2 12 32 12 112 l0
110 314 0 314 0 6 -31z m4419 -356 c-29 -2 -77 -2 -105 0 -29 2 -6 3 52 3 58
0 81 -1 53 -3z m84 1 c-3 -3 -12 -4 -19 -1 -8 3 -5 6 6 6 11 1 17 -2 13 -5z
m-5368 -114 l2 -110 -88 -1 c-48 -1 -112 -2 -140 -4 l-53 -2 0 114 0 113 139
0 139 0 1 -110z m-281 -254 c2 -89 -1 -143 -8 -150 -6 -6 -58 -12 -117 -13
-59 -1 -123 -3 -142 -5 l-36 -3 -3 158 -3 158 153 -3 153 -3 3 -139z m5562
-66 l0 -90 -125 0 -125 0 0 90 0 90 125 0 125 0 0 -90z m-250 -243 l5 -147
-130 0 -130 0 3 137 c1 76 5 144 7 151 3 9 34 12 122 10 l118 -3 5 -148z
m-260 -244 l0 -88 -119 3 -119 3 -7 -145 -7 -146 -119 0 -119 0 0 -75 0 -76
-117 3 -118 3 0 145 0 145 123 3 122 3 0 69 0 70 120 0 120 0 0 85 0 85 120 0
120 0 0 -87z m-729 -533 c0 -5 0 -38 1 -72 l0 -63 -116 -3 -116 -3 0 70 c0 82
-7 78 138 80 55 0 92 -3 93 -9z m-471 -160 l0 -120 115 0 115 0 0 -140 0 -140
-115 0 -114 0 -3 143 -3 142 -122 3 -123 3 0 114 0 115 125 0 125 0 0 -120z
m-2290 -130 l0 -140 -167 0 -168 0 3 140 3 140 165 0 164 0 0 -140z m3173
-267 c-29 -2 -78 -2 -110 0 -32 2 -8 3 52 3 61 0 87 -1 58 -3z m-403 -51 c0
-22 3 -80 6 -130 l7 -92 -127 0 -126 0 0 130 0 130 120 0 120 0 0 -38z m-4002
-232 l162 0 0 -115 0 -115 115 0 115 0 0 -110 0 -110 125 0 125 0 0 -530 0
-530 -120 0 -120 0 0 -130 0 -130 -120 0 -120 0 0 -145 0 -145 -545 0 -545 0
0 1037 0 1036 383 -6 c210 -4 455 -7 545 -7z m2658 -2 c2 -2 0 -73 -4 -158
l-7 -155 -247 -3 -248 -2 0 158 c0 87 3 162 7 166 7 7 492 1 499 -6z m2642
-216 l2 -222 100 0 100 0 0 -245 0 -245 118 0 117 0 -3 -565 -2 -565 -215 0
-215 0 0 145 0 145 -295 0 -295 0 0 -145 0 -145 -220 0 -220 0 0 565 0 565
115 0 115 0 0 240 0 240 110 0 110 0 0 225 0 225 278 2 c152 2 282 3 287 2 6
0 11 -84 13 -222z m-3962 -247 l-7 -465 80 0 81 0 0 -140 0 -140 85 0 85 0 0
140 0 140 80 0 80 0 0 190 0 190 69 0 69 0 4 -597 c2 -329 2 -604 0 -611 -3
-9 -37 -12 -123 -12 l-119 0 0 -145 0 -145 -215 0 -215 0 -2 98 c-1 53 -1 118
-1 145 l1 47 -79 0 c-94 0 -92 -5 -87 153 l3 107 -102 0 -103 0 0 755 0 755
212 0 211 0 -7 -465z m2164 356 l0 -108 31 -7 c17 -3 67 -6 110 -6 l79 0 0
-110 0 -110 125 0 125 0 0 -530 0 -530 -120 0 -119 0 -3 -127 -3 -128 -122 -3
-123 -3 0 -144 0 -145 -320 0 -320 0 0 755 0 755 55 0 55 0 0 -470 0 -470 180
0 180 0 0 135 0 134 105 3 c58 2 105 6 105 11 0 4 0 120 0 257 l0 250 -100 0
-100 0 0 80 0 80 -180 0 -179 0 -3 153 -3 152 -57 3 -58 3 0 114 0 115 330 0
330 0 0 -109z m-850 -1191 l0 -750 -80 0 -80 0 0 -135 0 -135 -80 0 -80 0 0
135 0 135 -85 0 -85 0 0 750 0 750 245 0 245 0 0 -750z"/>
<path d="M5050 4760 l0 -160 255 -1 c140 -1 261 -2 268 -3 9 -1 13 39 15 162
l4 162 -271 0 -271 0 0 -160z"/>
<path d="M2450 1815 l0 -475 230 0 230 0 0 135 0 134 98 3 97 3 0 257 0 258
-112 0 -113 0 0 80 0 80 -215 0 -215 0 0 -475z"/>
<path d="M7733 1873 l-93 -4 0 -123 0 -123 143 -6 c78 -4 199 -7 270 -7 l127
0 0 135 0 135 -177 -2 c-98 -1 -220 -4 -270 -5z"/>
</g>
</svg>
